# xmcd
# 
# Track frame offsets:
#     150
#     20820
#     39178
#     57195
#     76774
#     97834
#     124381
#     142114
#     166559
#     186923
#     213502
#     234215
#     257175
#     277492
# 
# Disc length: 4025
# 
# Revision: 0
# Processed by: cddbd v1.5.2PL0 Copyright (c) Steve Scherf et al.
# Submitted via: BonkEnc v1.0
# 
DISCID=c20fb70e
DTITLE=Dixie Chicks - Taking The Long Way
DYEAR=2006
DGENRE=Country
TTITLE0=The Long Way Around
TTITLE1=Easy Silence
TTITLE2=Not Ready To Make Nice
TTITLE3=Everybody Knows
TTITLE4=Bitter End
TTITLE5=Lullaby
TTITLE6=Lubbock Or Leave it
TTITLE7=Silent House
TTITLE8=Favorite Year
TTITLE9=Voice Inside My Head
TTITLE10=I Like It
TTITLE11=Baby Hold On
TTITLE12=So Hard
TTITLE13=I Hope
EXTD=
EXTT0=
EXTT1=
EXTT2=
EXTT3=
EXTT4=
EXTT5=
EXTT6=
EXTT7=
EXTT8=
EXTT9=
EXTT10=
EXTT11=
EXTT12=
EXTT13=
PLAYORDER=
